<?xml version="1.0" encoding="UTF-8"?>
<svg width="72px" height="72px" viewBox="0 0 72 72" version="1.1" xmlns="http://www.w3.org/2000/svg" xmlns:xlink="http://www.w3.org/1999/xlink">
    <title>logo</title>
    <g id="Page-1" stroke="none" stroke-width="1" fill="none" fill-rule="evenodd">
        <g id="Example" transform="translate(-688, -92)" fill="#F25130">
            <g id="NAV" transform="translate(121.5, 92)">
                <path d="M616.687627,15.6076997 C613.15204,15.6076997 610.285951,18.4638107 610.285951,21.9870898 C610.285951,25.5103689 613.15204,28.3664798 616.687627,28.3664798 C620.223215,28.3664798 623.089303,25.5103689 623.089303,21.9870898 C623.089303,18.4638107 620.223215,15.6076997 616.687627,15.6076997 M578.332509,27.6135958 C582.721032,28.4367691 586.859541,29.965155 590.625007,32.0761532 C592.355439,25.6508315 595.530088,19.8153134 599.781848,14.9361239 C599.725746,14.935776 599.670226,14.9335722 599.614124,14.9335722 C590.409562,14.9335722 582.408514,20.0651535 578.332509,27.6135958 M597.916167,49.6644795 C600.402578,47.1861445 600.402578,43.1680567 597.916167,40.6898376 C595.42964,38.2115026 591.39833,38.2115026 588.911919,40.6898376 C586.425508,43.1680567 582.909242,55.6478834 582.909242,55.6478834 C582.909242,55.6478834 595.42964,52.1426986 597.916167,49.6644795 M606.72045,48.6224352 C608.622912,52.253352 609.988099,56.2084578 610.70916,60.3833627 C618.355671,56.4352162 623.61168,48.5334717 623.758919,39.3940095 C618.915876,43.6485987 613.115376,46.8449051 606.72045,48.6224352 Z M632.728132,39.0011551 C632.728132,57.2259126 617.902549,72 599.614124,72 C581.3257,72 566.5,57.2259126 566.5,39.0011551 C566.5,20.7765135 581.3257,6.00231011 599.614124,6.00231011 C602.718937,6.00231011 605.722604,6.43135309 608.572048,7.22808092 C615.46095,2.66113357 623.731566,0 632.626288,0 C634.447855,0 636.242885,0.113205176 638.005674,0.329988449 C638.330879,2.46662016 638.5,4.65440299 638.5,6.88150605 C638.5,15.5292912 635.956207,23.5836771 631.576064,30.3460626 C632.326922,33.1042789 632.728132,36.0059734 632.728132,39.0011551 Z" id="logo"></path>
            </g>
        </g>
    </g>
</svg>